HIERARCHY
ROOT Hips
{
    OFFSET 0.000000 0.000000 0.000000
    CHANNELS 6 Xposition Yposition Zposition Zrotation Xrotation Yrotation
    JOINT Spine
    {
        OFFSET -0.000000 7.236184 0.000000
        CHANNELS 3 Zrotation Xrotation Yrotation
        JOINT Spine1
        {
            OFFSET -0.000000 20.420147 0.000000
            CHANNELS 3 Zrotation Xrotation Yrotation
            JOINT Neck
            {
                OFFSET -0.000000 20.336288 1.848754
                CHANNELS 3 Zrotation Xrotation Yrotation
                JOINT Head
                {
                    OFFSET -0.000000 12.354461 -1.764923
                    CHANNELS 3 Zrotation Xrotation Yrotation
                    End Site
                    {
                        OFFSET -0.000000 22.061537 0.000000
                    }
                }
            }
            JOINT LeftShoulder
            {
                OFFSET 3.573296 18.396038 -0.314103
                CHANNELS 3 Zrotation Xrotation Yrotation
                JOINT LeftArm
                {
                    OFFSET 10.880760 0.000000 0.000000
                    CHANNELS 3 Zrotation Xrotation Yrotation
                    JOINT LeftForeArm
                    {
                        OFFSET 27.185530 0.000000 0.000000
                        CHANNELS 3 Zrotation Xrotation Yrotation
                        JOINT LeftHand
                        {
                            OFFSET 27.825975 0.000000 0.000000
                            CHANNELS 3 Zrotation Xrotation Yrotation
                            End Site
                            {
                                OFFSET 13.236923 0.000000 0.000000
                            }
                        }
                    }
                }
            }
            JOINT RightShoulder
            {
                OFFSET -3.474926 18.396038 -0.314103
                CHANNELS 3 Zrotation Xrotation Yrotation
                JOINT RightArm
                {
                    OFFSET -10.880760 0.000000 0.000000
                    CHANNELS 3 Zrotation Xrotation Yrotation
                    JOINT RightForeArm
                    {
                        OFFSET -27.185530 0.000000 0.000000
                        CHANNELS 3 Zrotation Xrotation Yrotation
                        JOINT RightHand
                        {
                            OFFSET -27.825975 0.000000 0.000000
                            CHANNELS 3 Zrotation Xrotation Yrotation
                            End Site
                            {
                                OFFSET -13.236923 0.000000 0.000000
                            }
                        }
                    }
                }
            }
        }
    }
    JOINT LeftUpLeg
    {
        OFFSET 8.824615 0.000000 0.000000
        CHANNELS 3 Zrotation Xrotation Yrotation
        JOINT LeftLeg
        {
            OFFSET -0.000000 -35.111282 0.000000
            CHANNELS 3 Zrotation Xrotation Yrotation
            JOINT LeftFoot
            {
                OFFSET -0.000000 -42.324711 0.000000
                CHANNELS 3 Zrotation Xrotation Yrotation
                JOINT LeftToeBase
                {
                    OFFSET -0.000000 -5.735999 13.236923
                    CHANNELS 3 Zrotation Xrotation Yrotation
                    End Site
                    {
                        OFFSET -0.000000 0.000000 3.529846
                    }
                }
            }
        }
    }
    JOINT RightUpLeg
    {
        OFFSET -8.824615 0.000000 0.000000
        CHANNELS 3 Zrotation Xrotation Yrotation
        JOINT RightLeg
        {
            OFFSET -0.000000 -35.111282 0.000000
            CHANNELS 3 Zrotation Xrotation Yrotation
            JOINT RightFoot
            {
                OFFSET -0.000000 -42.324711 0.000000
                CHANNELS 3 Zrotation Xrotation Yrotation
                JOINT RightToeBase
                {
                    OFFSET -0.000000 -5.735999 13.236923
                    CHANNELS 3 Zrotation Xrotation Yrotation
                    End Site
                    {
                        OFFSET -0.000000 0.000000 3.529846
                    }
                }
            }
        }
    }
}
MOTION
Frames:    12
Frame Time:    0.008333
7.498522    81.134727    108.421257    2.301650    -14.368183    -172.381439    -2.297535    -10.679520    0.167673    2.692825    5.687006    0.248647    1.684599    6.930454    -4.315484    7.119927    -4.716946    -3.334748    -0.790746    16.639469    -0.534103    -49.439087    36.579365    -36.788460    2.287950    -5.333366    -13.056733    15.930581    -4.999362    0.525406    7.114468    18.376774    -6.862802    40.747807    45.162376    35.536018    -2.891979    -7.352447    21.712912    -14.663999    -6.353748    -3.505222    9.847494    -28.627323    -1.534307    1.549619    29.270180    5.360956    -10.992152    -11.344564    -16.170956    -0.934295    -0.796783    1.037125    -12.969440    -10.857924    -6.068557    2.956701    8.416338    -2.658929    10.724614    -6.908954    -11.100882    -0.208483    0.823017    0.225238    
7.229147    81.046555    108.436035    2.510809    -14.348001    -172.274246    -2.222066    -10.582049    0.181338    2.886020    5.694860    0.243746    1.805063    6.741557    -4.392224    7.104168    -4.732076    -3.430207    -0.759772    16.640806    -0.569285    -49.469517    36.451664    -36.792610    2.255465    -5.287469    -12.985147    15.918710    -4.960824    0.509517    7.145073    18.364012    -6.908356    40.842194    44.928761    35.117836    -2.988324    -7.426569    21.918173    -14.689413    -6.413122    -3.428947    9.750353    -29.068836    -1.674933    1.652376    30.046585    5.094926    -10.824062    -11.732183    -15.952059    -0.913628    -0.809854    1.014209    -13.025639    -10.973069    -6.188523    2.972139    8.711582    -2.649910    10.960835    -6.943540    -11.029592    -0.216113    0.750762    0.233504    
6.957218    80.958580    108.450554    2.720410    -14.327542    -172.167801    -2.146892    -10.484405    0.194669    3.081585    5.701988    0.238340    1.926547    6.550819    -4.467865    7.087007    -4.746320    -3.525363    -0.728213    16.641340    -0.604816    -49.499664    36.326218    -36.795990    2.222868    -5.240728    -12.914563    15.906487    -4.921332    0.494124    7.175860    18.351534    -6.954779    40.937542    44.688961    34.697392    -3.083994    -7.501681    22.122112    -14.714767    -6.473388    -3.352304    9.647727    -29.506615    -1.815046    1.759825    30.816774    4.831964    -10.653849    -12.115981    -15.737823    -0.892613    -0.821659    0.990901    -13.083680    -11.085695    -6.309058    2.986706    9.003515    -2.642124    11.200249    -6.972699    -10.952952    -0.223223    0.675767    0.241210    
6.685146    80.872581    108.464455    2.926730    -14.308144    -172.064911    -2.074419    -10.388889    0.206796    3.278465    5.707815    0.231992    2.047785    6.360859    -4.540730    7.067610    -4.758715    -3.618532    -0.695947    16.640030    -0.641294    -49.529655    36.207153    -36.796398    2.190214    -5.193302    -12.847538    15.894134    -4.880891    0.479959    7.206504    18.339693    -7.002093    41.036488    44.441467    34.277657    -3.176810    -7.575655    22.319054    -14.740774    -6.532971    -3.275460    9.539245    -29.931309    -1.948163    1.874024    31.563831    4.571665    -10.485108    -12.489882    -15.531629    -0.871369    -0.830635    0.967335    -13.144224    -11.192746    -6.428281    2.999443    9.283895    -2.637756    11.441738    -6.990893    -10.867573    -0.229070    0.596052    0.247555    
6.411402    80.789032    108.477524    3.129583    -14.290167    -171.966660    -2.005263    -10.295314    0.217080    3.478013    5.711344    0.224321    2.168727    6.170692    -4.610423    7.046237    -4.767516    -3.709375    -0.662679    16.636692    -0.678554    -49.558598    36.097057    -36.793362    2.157567    -5.145034    -12.785218    15.881450    -4.839223    0.467401    7.237287    18.328714    -7.051229    41.142265    44.181973    33.855949    -3.266346    -7.647721    22.506536    -14.767917    -6.591396    -3.197322    9.423939    -30.339840    -2.070110    1.998121    32.282791    4.310000    -10.318628    -12.853599    -15.333640    -0.849420    -0.835663    0.942977    -13.208283    -11.292418    -6.545820    3.009729    9.549374    -2.638609    11.687667    -6.993422    -10.769343    -0.232875    0.508601    0.251698    
6.133830    80.708122    108.489502    3.329734    -14.273618    -171.873962    -1.939224    -10.203180    0.225340    3.681882    5.711702    0.214868    2.289969    5.979859    -4.676680    7.022344    -4.772042    -3.797818    -0.628178    16.630735    -0.717214    -49.586834    35.996986    -36.784637    2.124340    -5.095368    -12.728748    15.868999    -4.795819    0.456918    7.268641    18.318729    -7.102824    41.258854    43.904984    33.428055    -3.352286    -7.716988    22.682695    -14.796528    -6.648111    -3.116666    9.301620    -30.730160    -2.177542    2.134595    32.971245    4.043706    -10.154757    -13.207901    -15.143972    -0.826363    -0.835508    0.917381    -13.276479    -11.382977    -6.661267    3.017110    9.797585    -2.645582    11.940700    -6.975774    -10.654997    -0.234288    0.410652    0.253258    
5.851686    80.630722    108.500252    3.525988    -14.259781    -171.788528    -1.877220    -10.113002    0.231258    3.890316    5.707391    0.203387    2.411078    5.788672    -4.738863    6.995812    -4.771430    -3.883220    -0.592638    16.621885    -0.756819    -49.614071    35.909264    -36.768715    2.090761    -5.044631    -12.679326    15.857346    -4.750831    0.449129    7.300839    18.310389    -7.157156    41.389099    43.606167    32.993053    -3.433668    -7.782155    22.844355    -14.827093    -6.702216    -3.032750    9.171740    -31.099184    -2.267767    2.284339    33.622814    3.772880    -9.994737    -13.551149    -14.963938    -0.801652    -0.829394    0.889937    -13.350494    -11.463820    -6.773777    3.021674    10.025816    -2.658851    12.201832    -6.933672    -10.522643    -0.232396    0.298948    0.251252    
5.564585    80.557838    108.509682    3.716560    -14.250420    -171.712524    -1.820305    -10.026091    0.234597    4.102617    5.697221    0.190223    2.531519    5.598249    -4.796371    6.966872    -4.765335    -3.964854    -0.556168    16.610090    -0.796845    -49.640083    35.835426    -36.743790    2.056952    -4.993246    -12.638043    15.847211    -4.704640    0.444206    7.333892    18.303944    -7.214284    41.535988    43.282375    32.550259    -3.509881    -7.842121    22.988567    -14.859107    -6.752922    -2.945177    9.034072    -31.444080    -2.338797    2.446648    34.230946    3.500056    -9.839715    -13.881205    -14.795309    -0.774779    -0.816194    0.860084    -13.432459    -11.535438    -6.882578    3.023621    10.232687    -2.678070    12.471773    -6.863289    -10.370743    -0.226613    0.170920    0.245042    
5.274899    80.491028    108.517479    3.898968    -14.246154    -171.648621    -1.768717    -9.942838    0.235800    4.315850    5.679500    0.175654    2.649534    5.411387    -4.848236    6.936237    -4.753514    -4.041356    -0.519404    16.595755    -0.836108    -49.664661    35.776714    -36.708485    2.023146    -4.942005    -12.606076    15.840271    -4.657906    0.442710    7.367822    18.300404    -7.273755    41.700451    42.933121    32.103817    -3.579522    -7.895120    23.111525    -14.892157    -6.798929    -2.854374    8.891335    -31.758734    -2.388839    2.617791    34.785271    3.230316    -9.692122    -14.193386    -14.640295    -0.745320    -0.796023    0.827352    -13.522429    -11.597255    -6.985176    3.023444    10.416525    -2.701528    12.748119    -6.762594    -10.201121    -0.216256    0.024615    0.233890    
4.977159    80.430092    108.523651    4.075305    -14.247953    -171.598007    -1.721771    -9.862256    0.235415    4.532981    5.653055    0.160179    2.766367    5.225383    -4.895110    6.903739    -4.735501    -4.113592    -0.482171    16.578417    -0.874372    -49.688206    35.732857    -36.660549    1.989158    -4.890842    -12.583537    15.837366    -4.610543    0.445097    7.402922    18.299915    -7.336521    41.887878    42.549603    31.645651    -3.643743    -7.941316    23.213491    -14.926753    -6.840352    -2.759186    8.742320    -32.046627    -2.418943    2.796807    35.291622    2.963945    -9.549729    -14.491557    -14.496853    -0.712435    -0.767980    0.790807    -13.623483    -11.651971    -7.081321    3.021951    10.582869    -2.728355    13.035879    -6.627482    -10.011542    -0.200536    -0.145720    0.216939    
4.675209    80.377007    108.528069    4.241723    -14.257299    -171.564102    -1.680172    -9.786262    0.234091    4.749340    5.617122    0.144981    2.879997    5.043781    -4.935892    6.869765    -4.711495    -4.180034    -0.444984    16.558666    -0.910023    -49.710918    35.704224    -36.598915    1.955532    -4.840972    -12.571317    15.840159    -4.563646    0.451562    7.438512    18.302982    -7.401678    42.098377    42.133999    31.182381    -3.701165    -7.979090    23.290842    -14.962370    -6.875878    -2.660830    8.590521    -32.302059    -2.428890    2.976282    35.738857    2.710467    -9.414958    -14.769452    -14.367553    -0.676277    -0.733326    0.750624    -13.736148    -11.701763    -7.167553    3.020226    10.733788    -2.755844    13.330691    -6.457973    -9.806206    -0.178827    -0.341570    0.193507    
4.367335    80.332512    108.530769    4.398241    -14.275156    -171.549286    -1.643195    -9.714310    0.232953    4.964427    5.570544    0.131055    2.990912    4.866008    -4.970468    6.833488    -4.681223    -4.240772    -0.407915    16.536221    -0.941938    -49.733654    35.690231    -36.521603    1.922598    -4.792938    -12.569667    15.849766    -4.517714    0.462191    7.474533    18.309902    -7.469767    42.334240    41.682690    30.712769    -3.752525    -8.008411    23.342886    -14.999366    -6.905351    -2.559562    8.437443    -32.525536    -2.419768    3.150940    36.127659    2.474599    -9.286423    -15.027254    -14.251185    -0.636662    -0.692956    0.706602    -13.862344    -11.750993    -7.240935    3.019772    10.877609    -2.782782    13.633149    -6.252780    -9.586336    -0.150511    -0.567130    0.162917    
